<svg xmlns="http://www.w3.org/2000/svg" width="28.494" height="28.494" viewBox="0 0 28.494 28.494">
    <g transform="translate(110.447 311.719)">
        <g transform="translate(-110.447 -311.719)">
            <path
                d="M-96.2-311.535a14.263,14.263,0,0,0-14.247,14.247A14.124,14.124,0,0,0-106.054-287l.365.325c.464-.445,6.788-6.668,7.174-7.048l.765-.753c.064-.064.131-.125.193-.19a.988.988,0,0,0,.313-.762,1,1,0,0,0-.331-.725l-.127-.1a1.1,1.1,0,0,0-1.363.146l-6.409,6.31a11.94,11.94,0,0,1-2.653-7.493A11.939,11.939,0,0,1-96.2-309.213a11.939,11.939,0,0,1,11.926,11.926A11.939,11.939,0,0,1-96.2-285.362a11.913,11.913,0,0,1-3.188-.435,1.9,1.9,0,0,0-.531-.087,1.11,1.11,0,0,0-1.107,1.161,1.228,1.228,0,0,0,.978,1.15,14.214,14.214,0,0,0,3.848.532,14.263,14.263,0,0,0,14.247-14.247A14.263,14.263,0,0,0-96.2-311.535Z"
                transform="translate(110.447 311.535)" fill="#00bcf5" />
            <path
                d="M-70.887-283.747a1.09,1.09,0,0,0-1.031-.875,1.051,1.051,0,0,0-1.048,1.04,1.243,1.243,0,0,0,.069.376,7.5,7.5,0,0,1,.263,2.016,7.539,7.539,0,0,1-7.518,7.467h-.054a7.47,7.47,0,0,1-5.3-2.239,7.47,7.47,0,0,1-2.165-5.332,7.47,7.47,0,0,1,2.239-5.3,7.473,7.473,0,0,1,5.278-2.166h.055a7.558,7.558,0,0,1,4.467,1.512l-3.9,3.878a1.01,1.01,0,0,0-.178,1.179l.133.191a.944.944,0,0,0,.683.306.989.989,0,0,0,.691-.284l4.4-4.372c.073-.071.2-.191.318-.316l.044-.044c.192-.2.665-.7.665-.7l-.394-.419a9.516,9.516,0,0,0-6.911-3.009h-.081a9.527,9.527,0,0,0-6.727,2.765,9.539,9.539,0,0,0-2.86,6.769A9.538,9.538,0,0,0-86.99-274.5a9.539,9.539,0,0,0,6.77,2.86h.067a9.626,9.626,0,0,0,9.6-9.534A9.582,9.582,0,0,0-70.887-283.747Z"
                transform="translate(94.401 295.489)" fill="#2ad5c5" />
        </g>
    </g>
</svg>